<mxfile host="app.diagrams.net" agent="Mozilla/5.0 (Windows NT 10.0; Win64; x64; rv:144.0) Gecko/20100101 Firefox/144.0" version="28.2.7">
  <diagram name="Page-1" id="2cc2dc42-3aac-f2a9-1cec-7a8b7cbee084">
    <mxGraphModel dx="1554" dy="850" grid="1" gridSize="10" guides="1" tooltips="1" connect="1" arrows="1" fold="1" page="1" pageScale="1" pageWidth="1100" pageHeight="850" background="none" math="0" shadow="0">
      <root>
        <mxCell id="0" />
        <mxCell id="1" parent="0" />
        <mxCell id="7026571954dc6520-1" value="" style="strokeWidth=1;shadow=0;dashed=0;align=center;html=1;shape=mxgraph.mockup.containers.browserWindow;rSize=0;strokeColor=#666666;mainText=,;recursiveResize=0;rounded=0;labelBackgroundColor=none;fontFamily=Verdana;fontSize=12" parent="1" vertex="1">
          <mxGeometry x="30" y="20" width="1050" height="820" as="geometry" />
        </mxCell>
        <mxCell id="0ezgG9I7OVWT-BrZ1D5e-14" value="" style="rounded=0;whiteSpace=wrap;html=1;fillColor=default;" vertex="1" parent="7026571954dc6520-1">
          <mxGeometry x="140" y="450" width="760" height="180" as="geometry" />
        </mxCell>
        <mxCell id="7026571954dc6520-2" value="Match starten" style="strokeWidth=1;shadow=0;dashed=0;align=center;html=1;shape=mxgraph.mockup.containers.anchor;fontSize=17;fontColor=#666666;align=left;" parent="7026571954dc6520-1" vertex="1">
          <mxGeometry x="60" y="12" width="110" height="26" as="geometry" />
        </mxCell>
        <mxCell id="7026571954dc6520-3" value="https://hexfields-studio.github.io/HexfieldsDominion/lobby/[lobby_id]" style="strokeWidth=1;shadow=0;dashed=0;align=center;html=1;shape=mxgraph.mockup.containers.anchor;rSize=0;fontSize=17;fontColor=#666666;align=left;" parent="7026571954dc6520-1" vertex="1">
          <mxGeometry x="130" y="60" width="250" height="26" as="geometry" />
        </mxCell>
        <mxCell id="7026571954dc6520-4" value="Lobby &quot;&lt;i&gt;[Name]&lt;/i&gt;&quot;" style="text;html=1;points=[];align=left;verticalAlign=top;spacingTop=-4;fontSize=30;fontFamily=Verdana" parent="7026571954dc6520-1" vertex="1">
          <mxGeometry x="398" y="170" width="245" height="40" as="geometry" />
        </mxCell>
        <mxCell id="fFjievGGbrHmdc-88DgR-3" value="" style="sketch=0;outlineConnect=0;fontColor=#232F3E;gradientColor=none;fillColor=#232F3D;strokeColor=none;dashed=0;verticalLabelPosition=bottom;verticalAlign=top;align=center;html=1;fontSize=12;fontStyle=0;aspect=fixed;pointerEvents=1;shape=mxgraph.aws4.gear;" parent="7026571954dc6520-1" vertex="1">
          <mxGeometry x="1000" y="130" width="28" height="28" as="geometry" />
        </mxCell>
        <mxCell id="0ezgG9I7OVWT-BrZ1D5e-4" value="&lt;b&gt;&lt;font style=&quot;font-size: 15px;&quot;&gt;Beigetretene Spieler&lt;/font&gt;&lt;/b&gt;" style="swimlane;fontStyle=0;childLayout=stackLayout;horizontal=1;startSize=30;horizontalStack=0;resizeParent=1;resizeParentMax=0;resizeLast=0;collapsible=1;marginBottom=0;whiteSpace=wrap;html=1;" vertex="1" parent="7026571954dc6520-1">
          <mxGeometry x="140" y="270" width="760" height="120" as="geometry">
            <mxRectangle x="140" y="250" width="180" height="30" as="alternateBounds" />
          </mxGeometry>
        </mxCell>
        <mxCell id="0ezgG9I7OVWT-BrZ1D5e-5" value="Spieler1" style="text;strokeColor=none;fillColor=none;align=center;verticalAlign=middle;spacingLeft=4;spacingRight=4;overflow=hidden;points=[[0,0.5],[1,0.5]];portConstraint=eastwest;rotatable=0;whiteSpace=wrap;html=1;" vertex="1" parent="0ezgG9I7OVWT-BrZ1D5e-4">
          <mxGeometry y="30" width="760" height="30" as="geometry" />
        </mxCell>
        <mxCell id="0ezgG9I7OVWT-BrZ1D5e-6" value="Spieler2" style="text;strokeColor=none;fillColor=none;align=center;verticalAlign=middle;spacingLeft=4;spacingRight=4;overflow=hidden;points=[[0,0.5],[1,0.5]];portConstraint=eastwest;rotatable=0;whiteSpace=wrap;html=1;" vertex="1" parent="0ezgG9I7OVWT-BrZ1D5e-4">
          <mxGeometry y="60" width="760" height="30" as="geometry" />
        </mxCell>
        <mxCell id="0ezgG9I7OVWT-BrZ1D5e-7" value="&lt;div align=&quot;center&quot;&gt;&lt;font style=&quot;font-size: 14px;&quot;&gt;...&lt;/font&gt;&lt;/div&gt;" style="text;strokeColor=none;fillColor=none;align=center;verticalAlign=middle;spacingLeft=4;spacingRight=4;overflow=hidden;points=[[0,0.5],[1,0.5]];portConstraint=eastwest;rotatable=0;whiteSpace=wrap;html=1;" vertex="1" parent="0ezgG9I7OVWT-BrZ1D5e-4">
          <mxGeometry y="90" width="760" height="30" as="geometry" />
        </mxCell>
        <mxCell id="0ezgG9I7OVWT-BrZ1D5e-9" value="&lt;font style=&quot;font-size: 20px;&quot;&gt;Match starten&lt;/font&gt;" style="rounded=1;whiteSpace=wrap;html=1;fillColor=light-dark(#FFFFFF,#1A1A1A);" vertex="1" parent="7026571954dc6520-1">
          <mxGeometry x="325" y="700" width="390" height="50" as="geometry" />
        </mxCell>
        <mxCell id="0ezgG9I7OVWT-BrZ1D5e-11" value="&lt;font style=&quot;font-size: 20px; color: light-dark(rgb(0, 0, 0), rgb(230, 230, 230));&quot;&gt;1234&lt;/font&gt;" style="rounded=0;whiteSpace=wrap;html=1;align=center;" vertex="1" parent="7026571954dc6520-1">
          <mxGeometry x="410" y="510" width="220" height="50" as="geometry" />
        </mxCell>
        <mxCell id="0ezgG9I7OVWT-BrZ1D5e-12" value="&lt;b&gt;&lt;font style=&quot;font-size: 17px;&quot;&gt;Lobbycode:&lt;/font&gt;&lt;/b&gt;" style="text;html=1;whiteSpace=wrap;strokeColor=none;fillColor=none;align=left;verticalAlign=middle;rounded=0;" vertex="1" parent="7026571954dc6520-1">
          <mxGeometry x="474" y="470" width="92" height="30" as="geometry" />
        </mxCell>
        <mxCell id="0ezgG9I7OVWT-BrZ1D5e-13" value="&lt;font style=&quot;font-size: 15px;&quot;&gt;Code kopieren&lt;/font&gt;" style="rounded=1;whiteSpace=wrap;html=1;fillColor=#f5f5f5;fontColor=#333333;strokeColor=#666666;" vertex="1" parent="7026571954dc6520-1">
          <mxGeometry x="460" y="570" width="120" height="30" as="geometry" />
        </mxCell>
      </root>
    </mxGraphModel>
  </diagram>
</mxfile>
